<mxfile host="app.diagrams.net" modified="2022-04-11T23:29:52.952Z" agent="5.0 (Windows NT 10.0; Win64; x64) AppleWebKit/537.36 (KHTML, like Gecko) Chrome/100.0.4896.75 Safari/537.36" etag="TNqsg0VipA7Mh-siro8s" version="17.1.5" type="github">
  <diagram name="Page-1" id="e7e014a7-5840-1c2e-5031-d8a46d1fe8dd">
    <mxGraphModel dx="1422" dy="794" grid="1" gridSize="10" guides="1" tooltips="1" connect="1" arrows="1" fold="1" page="1" pageScale="1" pageWidth="1169" pageHeight="826" background="none" math="0" shadow="0">
      <root>
        <mxCell id="0" />
        <mxCell id="1" parent="0" />
        <mxCell id="PtKYGCo6nFnBK5PdXEHj-41" value="Musician" style="rounded=0;whiteSpace=wrap;html=1;" vertex="1" parent="1">
          <mxGeometry x="590" y="280" width="120" height="60" as="geometry" />
        </mxCell>
        <mxCell id="PtKYGCo6nFnBK5PdXEHj-42" value="&lt;u&gt;SSN&lt;/u&gt;" style="ellipse;whiteSpace=wrap;html=1;" vertex="1" parent="1">
          <mxGeometry x="585" y="150" width="120" height="80" as="geometry" />
        </mxCell>
        <mxCell id="PtKYGCo6nFnBK5PdXEHj-43" value="Name" style="ellipse;whiteSpace=wrap;html=1;" vertex="1" parent="1">
          <mxGeometry x="730" y="130" width="120" height="80" as="geometry" />
        </mxCell>
        <mxCell id="PtKYGCo6nFnBK5PdXEHj-44" value="" style="endArrow=none;html=1;rounded=0;exitX=0.5;exitY=0;exitDx=0;exitDy=0;" edge="1" parent="1" source="PtKYGCo6nFnBK5PdXEHj-41" target="PtKYGCo6nFnBK5PdXEHj-42">
          <mxGeometry width="50" height="50" relative="1" as="geometry">
            <mxPoint x="630" y="330" as="sourcePoint" />
            <mxPoint x="680" y="280" as="targetPoint" />
          </mxGeometry>
        </mxCell>
        <mxCell id="PtKYGCo6nFnBK5PdXEHj-45" value="" style="endArrow=none;html=1;rounded=0;entryX=0;entryY=0.5;entryDx=0;entryDy=0;exitX=1;exitY=0;exitDx=0;exitDy=0;" edge="1" parent="1" source="PtKYGCo6nFnBK5PdXEHj-41" target="PtKYGCo6nFnBK5PdXEHj-43">
          <mxGeometry width="50" height="50" relative="1" as="geometry">
            <mxPoint x="630" y="330" as="sourcePoint" />
            <mxPoint x="680" y="280" as="targetPoint" />
          </mxGeometry>
        </mxCell>
        <mxCell id="PtKYGCo6nFnBK5PdXEHj-46" value="Address" style="rounded=0;whiteSpace=wrap;html=1;" vertex="1" parent="1">
          <mxGeometry x="280" y="210" width="120" height="60" as="geometry" />
        </mxCell>
        <mxCell id="PtKYGCo6nFnBK5PdXEHj-47" value="Telephone" style="ellipse;whiteSpace=wrap;html=1;" vertex="1" parent="1">
          <mxGeometry x="220" y="40" width="120" height="80" as="geometry" />
        </mxCell>
        <mxCell id="PtKYGCo6nFnBK5PdXEHj-48" value="Zip Code" style="ellipse;whiteSpace=wrap;html=1;" vertex="1" parent="1">
          <mxGeometry x="340" y="40" width="120" height="80" as="geometry" />
        </mxCell>
        <mxCell id="PtKYGCo6nFnBK5PdXEHj-49" value="State" style="ellipse;whiteSpace=wrap;html=1;" vertex="1" parent="1">
          <mxGeometry x="20" y="333" width="120" height="80" as="geometry" />
        </mxCell>
        <mxCell id="PtKYGCo6nFnBK5PdXEHj-50" value="Street 2" style="ellipse;whiteSpace=wrap;html=1;" vertex="1" parent="1">
          <mxGeometry x="375" y="130" width="120" height="80" as="geometry" />
        </mxCell>
        <mxCell id="PtKYGCo6nFnBK5PdXEHj-51" value="Street 1" style="ellipse;whiteSpace=wrap;html=1;" vertex="1" parent="1">
          <mxGeometry x="160" y="320" width="120" height="80" as="geometry" />
        </mxCell>
        <mxCell id="PtKYGCo6nFnBK5PdXEHj-52" value="Number" style="ellipse;whiteSpace=wrap;html=1;" vertex="1" parent="1">
          <mxGeometry x="80" y="240" width="120" height="80" as="geometry" />
        </mxCell>
        <mxCell id="PtKYGCo6nFnBK5PdXEHj-53" value="City" style="ellipse;whiteSpace=wrap;html=1;" vertex="1" parent="1">
          <mxGeometry x="100" y="140" width="120" height="80" as="geometry" />
        </mxCell>
        <mxCell id="PtKYGCo6nFnBK5PdXEHj-54" value="&lt;u&gt;AddressID&lt;/u&gt;" style="ellipse;whiteSpace=wrap;html=1;" vertex="1" parent="1">
          <mxGeometry x="100" y="50" width="120" height="80" as="geometry" />
        </mxCell>
        <mxCell id="PtKYGCo6nFnBK5PdXEHj-55" value="" style="endArrow=none;html=1;rounded=0;entryX=0;entryY=1;entryDx=0;entryDy=0;exitX=1;exitY=0;exitDx=0;exitDy=0;" edge="1" parent="1" source="PtKYGCo6nFnBK5PdXEHj-49" target="PtKYGCo6nFnBK5PdXEHj-46">
          <mxGeometry width="50" height="50" relative="1" as="geometry">
            <mxPoint x="220" y="320" as="sourcePoint" />
            <mxPoint x="270" y="270" as="targetPoint" />
          </mxGeometry>
        </mxCell>
        <mxCell id="PtKYGCo6nFnBK5PdXEHj-56" value="" style="endArrow=none;html=1;rounded=0;entryX=0.575;entryY=1;entryDx=0;entryDy=0;entryPerimeter=0;exitX=0.958;exitY=0.263;exitDx=0;exitDy=0;exitPerimeter=0;" edge="1" parent="1" source="PtKYGCo6nFnBK5PdXEHj-51" target="PtKYGCo6nFnBK5PdXEHj-46">
          <mxGeometry width="50" height="50" relative="1" as="geometry">
            <mxPoint x="310" y="340" as="sourcePoint" />
            <mxPoint x="360" y="290" as="targetPoint" />
          </mxGeometry>
        </mxCell>
        <mxCell id="PtKYGCo6nFnBK5PdXEHj-57" value="" style="endArrow=none;html=1;rounded=0;entryX=0;entryY=0.5;entryDx=0;entryDy=0;exitX=1;exitY=0.5;exitDx=0;exitDy=0;" edge="1" parent="1" source="PtKYGCo6nFnBK5PdXEHj-52" target="PtKYGCo6nFnBK5PdXEHj-46">
          <mxGeometry width="50" height="50" relative="1" as="geometry">
            <mxPoint x="210" y="275" as="sourcePoint" />
            <mxPoint x="260" y="225" as="targetPoint" />
          </mxGeometry>
        </mxCell>
        <mxCell id="PtKYGCo6nFnBK5PdXEHj-58" value="" style="endArrow=none;html=1;rounded=0;entryX=0;entryY=0;entryDx=0;entryDy=0;exitX=1.008;exitY=0.7;exitDx=0;exitDy=0;exitPerimeter=0;" edge="1" parent="1" source="PtKYGCo6nFnBK5PdXEHj-53" target="PtKYGCo6nFnBK5PdXEHj-46">
          <mxGeometry width="50" height="50" relative="1" as="geometry">
            <mxPoint x="220" y="240" as="sourcePoint" />
            <mxPoint x="270" y="190" as="targetPoint" />
          </mxGeometry>
        </mxCell>
        <mxCell id="PtKYGCo6nFnBK5PdXEHj-59" value="" style="endArrow=none;html=1;rounded=0;entryX=1;entryY=1;entryDx=0;entryDy=0;exitX=0.25;exitY=0;exitDx=0;exitDy=0;" edge="1" parent="1" source="PtKYGCo6nFnBK5PdXEHj-46" target="PtKYGCo6nFnBK5PdXEHj-54">
          <mxGeometry width="50" height="50" relative="1" as="geometry">
            <mxPoint x="230" y="195" as="sourcePoint" />
            <mxPoint x="280" y="145" as="targetPoint" />
          </mxGeometry>
        </mxCell>
        <mxCell id="PtKYGCo6nFnBK5PdXEHj-60" value="" style="endArrow=none;html=1;rounded=0;entryX=0.583;entryY=0.988;entryDx=0;entryDy=0;entryPerimeter=0;exitX=0.5;exitY=0;exitDx=0;exitDy=0;" edge="1" parent="1" source="PtKYGCo6nFnBK5PdXEHj-46" target="PtKYGCo6nFnBK5PdXEHj-47">
          <mxGeometry width="50" height="50" relative="1" as="geometry">
            <mxPoint x="255" y="170" as="sourcePoint" />
            <mxPoint x="305" y="120" as="targetPoint" />
          </mxGeometry>
        </mxCell>
        <mxCell id="PtKYGCo6nFnBK5PdXEHj-61" value="" style="endArrow=none;html=1;rounded=0;exitX=0.5;exitY=0;exitDx=0;exitDy=0;entryX=0;entryY=1;entryDx=0;entryDy=0;" edge="1" parent="1" source="PtKYGCo6nFnBK5PdXEHj-46" target="PtKYGCo6nFnBK5PdXEHj-48">
          <mxGeometry width="50" height="50" relative="1" as="geometry">
            <mxPoint x="315" y="160" as="sourcePoint" />
            <mxPoint x="360" y="120" as="targetPoint" />
          </mxGeometry>
        </mxCell>
        <mxCell id="PtKYGCo6nFnBK5PdXEHj-62" value="" style="endArrow=none;html=1;rounded=0;entryX=0.575;entryY=1;entryDx=0;entryDy=0;entryPerimeter=0;exitX=1;exitY=0.5;exitDx=0;exitDy=0;" edge="1" parent="1" source="PtKYGCo6nFnBK5PdXEHj-46" target="PtKYGCo6nFnBK5PdXEHj-50">
          <mxGeometry width="50" height="50" relative="1" as="geometry">
            <mxPoint x="400" y="270" as="sourcePoint" />
            <mxPoint x="450" y="220" as="targetPoint" />
          </mxGeometry>
        </mxCell>
        <mxCell id="PtKYGCo6nFnBK5PdXEHj-63" value="lived in by" style="rhombus;whiteSpace=wrap;html=1;" vertex="1" parent="1">
          <mxGeometry x="490" y="220" width="80" height="80" as="geometry" />
        </mxCell>
        <mxCell id="PtKYGCo6nFnBK5PdXEHj-64" value="" style="endArrow=none;html=1;rounded=0;entryX=0;entryY=0.5;entryDx=0;entryDy=0;exitX=1;exitY=0.75;exitDx=0;exitDy=0;" edge="1" parent="1" source="PtKYGCo6nFnBK5PdXEHj-46" target="PtKYGCo6nFnBK5PdXEHj-63">
          <mxGeometry width="50" height="50" relative="1" as="geometry">
            <mxPoint x="410" y="366.5" as="sourcePoint" />
            <mxPoint x="460" y="316.5" as="targetPoint" />
          </mxGeometry>
        </mxCell>
        <mxCell id="PtKYGCo6nFnBK5PdXEHj-65" value="" style="endArrow=none;html=1;rounded=0;entryX=0;entryY=0.25;entryDx=0;entryDy=0;exitX=0.875;exitY=0.65;exitDx=0;exitDy=0;exitPerimeter=0;" edge="1" parent="1" source="PtKYGCo6nFnBK5PdXEHj-63" target="PtKYGCo6nFnBK5PdXEHj-41">
          <mxGeometry width="50" height="50" relative="1" as="geometry">
            <mxPoint x="580" y="351.5" as="sourcePoint" />
            <mxPoint x="630" y="301.5" as="targetPoint" />
          </mxGeometry>
        </mxCell>
        <mxCell id="PtKYGCo6nFnBK5PdXEHj-66" value="(1,n) multiple musicians can live&lt;br&gt;in the same address" style="text;html=1;align=center;verticalAlign=middle;resizable=0;points=[];autosize=1;strokeColor=none;fillColor=none;" vertex="1" parent="1">
          <mxGeometry x="330" y="280" width="190" height="30" as="geometry" />
        </mxCell>
        <mxCell id="PtKYGCo6nFnBK5PdXEHj-67" value="Instrument" style="rounded=0;whiteSpace=wrap;html=1;" vertex="1" parent="1">
          <mxGeometry x="820" y="350" width="120" height="60" as="geometry" />
        </mxCell>
        <mxCell id="PtKYGCo6nFnBK5PdXEHj-68" value="Pitch" style="ellipse;whiteSpace=wrap;html=1;" vertex="1" parent="1">
          <mxGeometry x="950" y="390" width="120" height="80" as="geometry" />
        </mxCell>
        <mxCell id="PtKYGCo6nFnBK5PdXEHj-69" value="&lt;u&gt;Name&lt;/u&gt;" style="ellipse;whiteSpace=wrap;html=1;" vertex="1" parent="1">
          <mxGeometry x="970" y="310" width="120" height="80" as="geometry" />
        </mxCell>
        <mxCell id="PtKYGCo6nFnBK5PdXEHj-70" value="" style="endArrow=none;html=1;rounded=0;entryX=0;entryY=0.5;entryDx=0;entryDy=0;exitX=1;exitY=0.75;exitDx=0;exitDy=0;" edge="1" parent="1" source="PtKYGCo6nFnBK5PdXEHj-67" target="PtKYGCo6nFnBK5PdXEHj-68">
          <mxGeometry width="50" height="50" relative="1" as="geometry">
            <mxPoint x="940" y="450" as="sourcePoint" />
            <mxPoint x="990" y="400" as="targetPoint" />
          </mxGeometry>
        </mxCell>
        <mxCell id="PtKYGCo6nFnBK5PdXEHj-71" value="" style="endArrow=none;html=1;rounded=0;entryX=0.025;entryY=0.625;entryDx=0;entryDy=0;entryPerimeter=0;exitX=1;exitY=0;exitDx=0;exitDy=0;" edge="1" parent="1" source="PtKYGCo6nFnBK5PdXEHj-67" target="PtKYGCo6nFnBK5PdXEHj-69">
          <mxGeometry width="50" height="50" relative="1" as="geometry">
            <mxPoint x="960" y="360" as="sourcePoint" />
            <mxPoint x="1010" y="310" as="targetPoint" />
          </mxGeometry>
        </mxCell>
        <mxCell id="PtKYGCo6nFnBK5PdXEHj-72" value="uses/ used by" style="rhombus;whiteSpace=wrap;html=1;" vertex="1" parent="1">
          <mxGeometry x="780" y="240" width="80" height="80" as="geometry" />
        </mxCell>
        <mxCell id="PtKYGCo6nFnBK5PdXEHj-73" value="(M,N), musicians use multiple instruments&lt;br&gt;instruments used by multiple musicians" style="text;html=1;align=center;verticalAlign=middle;resizable=0;points=[];autosize=1;strokeColor=none;fillColor=none;" vertex="1" parent="1">
          <mxGeometry x="890" y="265" width="240" height="30" as="geometry" />
        </mxCell>
        <mxCell id="PtKYGCo6nFnBK5PdXEHj-74" value="" style="endArrow=none;html=1;rounded=0;entryX=0.5;entryY=1;entryDx=0;entryDy=0;exitX=0;exitY=0;exitDx=0;exitDy=0;" edge="1" parent="1" source="PtKYGCo6nFnBK5PdXEHj-67" target="PtKYGCo6nFnBK5PdXEHj-72">
          <mxGeometry width="50" height="50" relative="1" as="geometry">
            <mxPoint x="720" y="300" as="sourcePoint" />
            <mxPoint x="770" y="250" as="targetPoint" />
          </mxGeometry>
        </mxCell>
        <mxCell id="PtKYGCo6nFnBK5PdXEHj-75" value="" style="endArrow=none;html=1;rounded=0;entryX=1;entryY=0.5;entryDx=0;entryDy=0;exitX=0;exitY=0.5;exitDx=0;exitDy=0;" edge="1" parent="1" source="PtKYGCo6nFnBK5PdXEHj-72" target="PtKYGCo6nFnBK5PdXEHj-41">
          <mxGeometry width="50" height="50" relative="1" as="geometry">
            <mxPoint x="610" y="390" as="sourcePoint" />
            <mxPoint x="660" y="340" as="targetPoint" />
          </mxGeometry>
        </mxCell>
        <mxCell id="PtKYGCo6nFnBK5PdXEHj-76" value="Song" style="rounded=0;whiteSpace=wrap;html=1;" vertex="1" parent="1">
          <mxGeometry x="650" y="550" width="120" height="60" as="geometry" />
        </mxCell>
        <mxCell id="PtKYGCo6nFnBK5PdXEHj-77" value="Length" style="ellipse;whiteSpace=wrap;html=1;" vertex="1" parent="1">
          <mxGeometry x="580" y="623" width="120" height="80" as="geometry" />
        </mxCell>
        <mxCell id="PtKYGCo6nFnBK5PdXEHj-78" value="&lt;u&gt;Title&lt;/u&gt;" style="ellipse;whiteSpace=wrap;html=1;" vertex="1" parent="1">
          <mxGeometry x="720" y="623" width="120" height="80" as="geometry" />
        </mxCell>
        <mxCell id="PtKYGCo6nFnBK5PdXEHj-79" value="" style="endArrow=none;html=1;rounded=0;entryX=0;entryY=1;entryDx=0;entryDy=0;exitX=0.5;exitY=0;exitDx=0;exitDy=0;" edge="1" parent="1" source="PtKYGCo6nFnBK5PdXEHj-77" target="PtKYGCo6nFnBK5PdXEHj-76">
          <mxGeometry width="50" height="50" relative="1" as="geometry">
            <mxPoint x="790" y="390" as="sourcePoint" />
            <mxPoint x="840" y="340" as="targetPoint" />
          </mxGeometry>
        </mxCell>
        <mxCell id="PtKYGCo6nFnBK5PdXEHj-80" value="" style="endArrow=none;html=1;rounded=0;exitX=0.5;exitY=0;exitDx=0;exitDy=0;entryX=0.5;entryY=1;entryDx=0;entryDy=0;" edge="1" parent="1" source="PtKYGCo6nFnBK5PdXEHj-78" target="PtKYGCo6nFnBK5PdXEHj-76">
          <mxGeometry width="50" height="50" relative="1" as="geometry">
            <mxPoint x="790" y="390" as="sourcePoint" />
            <mxPoint x="710" y="613" as="targetPoint" />
          </mxGeometry>
        </mxCell>
        <mxCell id="PtKYGCo6nFnBK5PdXEHj-81" value="uses" style="rhombus;whiteSpace=wrap;html=1;" vertex="1" parent="1">
          <mxGeometry x="780" y="430" width="80" height="80" as="geometry" />
        </mxCell>
        <mxCell id="PtKYGCo6nFnBK5PdXEHj-82" value="" style="endArrow=none;html=1;rounded=0;exitX=1;exitY=0.25;exitDx=0;exitDy=0;entryX=0;entryY=1;entryDx=0;entryDy=0;" edge="1" parent="1" source="PtKYGCo6nFnBK5PdXEHj-76" target="PtKYGCo6nFnBK5PdXEHj-81">
          <mxGeometry width="50" height="50" relative="1" as="geometry">
            <mxPoint x="557.5" y="340" as="sourcePoint" />
            <mxPoint x="758" y="420" as="targetPoint" />
          </mxGeometry>
        </mxCell>
        <mxCell id="PtKYGCo6nFnBK5PdXEHj-83" value="" style="endArrow=none;html=1;rounded=0;entryX=0;entryY=1;entryDx=0;entryDy=0;exitX=1;exitY=0;exitDx=0;exitDy=0;" edge="1" parent="1" source="PtKYGCo6nFnBK5PdXEHj-81" target="PtKYGCo6nFnBK5PdXEHj-67">
          <mxGeometry width="50" height="50" relative="1" as="geometry">
            <mxPoint x="800" y="440" as="sourcePoint" />
            <mxPoint x="770" y="250" as="targetPoint" />
          </mxGeometry>
        </mxCell>
        <mxCell id="PtKYGCo6nFnBK5PdXEHj-84" value="(M,N), instrument can be used in M songs&lt;br&gt;song can use N instruments" style="text;html=1;align=center;verticalAlign=middle;resizable=0;points=[];autosize=1;strokeColor=none;fillColor=none;" vertex="1" parent="1">
          <mxGeometry x="830" y="490" width="240" height="30" as="geometry" />
        </mxCell>
        <mxCell id="PtKYGCo6nFnBK5PdXEHj-85" value="Authored" style="rhombus;whiteSpace=wrap;html=1;" vertex="1" parent="1">
          <mxGeometry x="645" y="400" width="80" height="80" as="geometry" />
        </mxCell>
        <mxCell id="PtKYGCo6nFnBK5PdXEHj-86" value="" style="endArrow=none;html=1;rounded=0;exitX=0.5;exitY=0;exitDx=0;exitDy=0;entryX=1;entryY=1;entryDx=0;entryDy=0;" edge="1" parent="1" source="PtKYGCo6nFnBK5PdXEHj-76" target="PtKYGCo6nFnBK5PdXEHj-85">
          <mxGeometry width="50" height="50" relative="1" as="geometry">
            <mxPoint x="707.5" y="377" as="sourcePoint" />
            <mxPoint x="757.5" y="327" as="targetPoint" />
          </mxGeometry>
        </mxCell>
        <mxCell id="PtKYGCo6nFnBK5PdXEHj-87" value="" style="endArrow=none;html=1;rounded=0;entryX=0.75;entryY=1;entryDx=0;entryDy=0;exitX=0.5;exitY=0;exitDx=0;exitDy=0;" edge="1" parent="1" source="PtKYGCo6nFnBK5PdXEHj-85" target="PtKYGCo6nFnBK5PdXEHj-41">
          <mxGeometry width="50" height="50" relative="1" as="geometry">
            <mxPoint x="560" y="410" as="sourcePoint" />
            <mxPoint x="610" y="360" as="targetPoint" />
          </mxGeometry>
        </mxCell>
        <mxCell id="PtKYGCo6nFnBK5PdXEHj-88" value="(1,n) each song has one author&lt;br&gt;musicians can author n songs" style="text;html=1;align=center;verticalAlign=middle;resizable=0;points=[];autosize=1;strokeColor=none;fillColor=none;" vertex="1" parent="1">
          <mxGeometry x="620" y="370" width="180" height="30" as="geometry" />
        </mxCell>
        <mxCell id="PtKYGCo6nFnBK5PdXEHj-89" value="1" style="text;html=1;align=center;verticalAlign=middle;resizable=0;points=[];autosize=1;strokeColor=none;fillColor=none;" vertex="1" parent="1">
          <mxGeometry x="470" y="230" width="20" height="20" as="geometry" />
        </mxCell>
        <mxCell id="PtKYGCo6nFnBK5PdXEHj-92" value="n" style="text;html=1;align=center;verticalAlign=middle;resizable=0;points=[];autosize=1;strokeColor=none;fillColor=none;" vertex="1" parent="1">
          <mxGeometry x="580" y="250" width="20" height="20" as="geometry" />
        </mxCell>
        <mxCell id="PtKYGCo6nFnBK5PdXEHj-93" value="m" style="text;html=1;align=center;verticalAlign=middle;resizable=0;points=[];autosize=1;strokeColor=none;fillColor=none;" vertex="1" parent="1">
          <mxGeometry x="725" y="275" width="30" height="20" as="geometry" />
        </mxCell>
        <mxCell id="PtKYGCo6nFnBK5PdXEHj-94" value="n" style="text;html=1;align=center;verticalAlign=middle;resizable=0;points=[];autosize=1;strokeColor=none;fillColor=none;" vertex="1" parent="1">
          <mxGeometry x="820" y="323" width="20" height="20" as="geometry" />
        </mxCell>
        <mxCell id="PtKYGCo6nFnBK5PdXEHj-95" value="1" style="text;html=1;align=center;verticalAlign=middle;resizable=0;points=[];autosize=1;strokeColor=none;fillColor=none;" vertex="1" parent="1">
          <mxGeometry x="685" y="343" width="20" height="20" as="geometry" />
        </mxCell>
        <mxCell id="PtKYGCo6nFnBK5PdXEHj-96" value="n" style="text;html=1;align=center;verticalAlign=middle;resizable=0;points=[];autosize=1;strokeColor=none;fillColor=none;" vertex="1" parent="1">
          <mxGeometry x="780" y="540" width="20" height="20" as="geometry" />
        </mxCell>
        <mxCell id="PtKYGCo6nFnBK5PdXEHj-97" value="" style="endArrow=none;html=1;rounded=0;exitX=0.392;exitY=0.017;exitDx=0;exitDy=0;exitPerimeter=0;entryX=0.65;entryY=0.875;entryDx=0;entryDy=0;entryPerimeter=0;" edge="1" parent="1" source="PtKYGCo6nFnBK5PdXEHj-76" target="PtKYGCo6nFnBK5PdXEHj-85">
          <mxGeometry width="50" height="50" relative="1" as="geometry">
            <mxPoint x="707.5" y="367" as="sourcePoint" />
            <mxPoint x="757.5" y="317" as="targetPoint" />
          </mxGeometry>
        </mxCell>
        <mxCell id="PtKYGCo6nFnBK5PdXEHj-98" value="" style="endArrow=none;html=1;rounded=0;entryX=1;entryY=1;entryDx=0;entryDy=0;exitX=0;exitY=0.5;exitDx=0;exitDy=0;" edge="1" parent="1" source="PtKYGCo6nFnBK5PdXEHj-41" target="PtKYGCo6nFnBK5PdXEHj-63">
          <mxGeometry width="50" height="50" relative="1" as="geometry">
            <mxPoint x="560" y="400" as="sourcePoint" />
            <mxPoint x="610" y="350" as="targetPoint" />
          </mxGeometry>
        </mxCell>
        <mxCell id="PtKYGCo6nFnBK5PdXEHj-99" value="Performed" style="rhombus;whiteSpace=wrap;html=1;" vertex="1" parent="1">
          <mxGeometry x="550" y="413" width="80" height="80" as="geometry" />
        </mxCell>
        <mxCell id="PtKYGCo6nFnBK5PdXEHj-100" value="" style="endArrow=none;html=1;rounded=0;exitX=1;exitY=1;exitDx=0;exitDy=0;entryX=0;entryY=0;entryDx=0;entryDy=0;" edge="1" parent="1" source="PtKYGCo6nFnBK5PdXEHj-99" target="PtKYGCo6nFnBK5PdXEHj-76">
          <mxGeometry width="50" height="50" relative="1" as="geometry">
            <mxPoint x="557.5" y="420" as="sourcePoint" />
            <mxPoint x="607.5" y="370" as="targetPoint" />
          </mxGeometry>
        </mxCell>
        <mxCell id="PtKYGCo6nFnBK5PdXEHj-101" value="" style="endArrow=none;html=1;rounded=0;entryX=0;entryY=1;entryDx=0;entryDy=0;exitX=1;exitY=0;exitDx=0;exitDy=0;" edge="1" parent="1" source="PtKYGCo6nFnBK5PdXEHj-99" target="PtKYGCo6nFnBK5PdXEHj-41">
          <mxGeometry width="50" height="50" relative="1" as="geometry">
            <mxPoint x="560" y="500" as="sourcePoint" />
            <mxPoint x="610" y="450" as="targetPoint" />
          </mxGeometry>
        </mxCell>
        <mxCell id="PtKYGCo6nFnBK5PdXEHj-102" value="m" style="text;html=1;align=center;verticalAlign=middle;resizable=0;points=[];autosize=1;strokeColor=none;fillColor=none;" vertex="1" parent="1">
          <mxGeometry x="570" y="390" width="30" height="20" as="geometry" />
        </mxCell>
        <mxCell id="PtKYGCo6nFnBK5PdXEHj-103" value="n" style="text;html=1;align=center;verticalAlign=middle;resizable=0;points=[];autosize=1;strokeColor=none;fillColor=none;" vertex="1" parent="1">
          <mxGeometry x="600" y="490" width="20" height="20" as="geometry" />
        </mxCell>
        <mxCell id="PtKYGCo6nFnBK5PdXEHj-104" value="(M,N) M musicians can perform song&lt;br&gt;N songs can be performed by musician" style="text;html=1;align=center;verticalAlign=middle;resizable=0;points=[];autosize=1;strokeColor=none;fillColor=none;" vertex="1" parent="1">
          <mxGeometry x="410" y="510" width="220" height="30" as="geometry" />
        </mxCell>
        <mxCell id="PtKYGCo6nFnBK5PdXEHj-107" value="m" style="text;html=1;align=center;verticalAlign=middle;resizable=0;points=[];autosize=1;strokeColor=none;fillColor=none;" vertex="1" parent="1">
          <mxGeometry x="835" y="420" width="30" height="20" as="geometry" />
        </mxCell>
        <mxCell id="PtKYGCo6nFnBK5PdXEHj-108" value="n" style="text;html=1;align=center;verticalAlign=middle;resizable=0;points=[];autosize=1;strokeColor=none;fillColor=none;" vertex="1" parent="1">
          <mxGeometry x="710" y="530" width="20" height="20" as="geometry" />
        </mxCell>
        <mxCell id="PtKYGCo6nFnBK5PdXEHj-110" value="Album" style="rounded=0;whiteSpace=wrap;html=1;" vertex="1" parent="1">
          <mxGeometry x="250" y="493" width="120" height="60" as="geometry" />
        </mxCell>
        <mxCell id="PtKYGCo6nFnBK5PdXEHj-111" value="Age" style="ellipse;whiteSpace=wrap;html=1;" vertex="1" parent="1">
          <mxGeometry x="10" y="510" width="120" height="80" as="geometry" />
        </mxCell>
        <mxCell id="PtKYGCo6nFnBK5PdXEHj-112" value="Format" style="ellipse;whiteSpace=wrap;html=1;" vertex="1" parent="1">
          <mxGeometry y="420" width="120" height="80" as="geometry" />
        </mxCell>
        <mxCell id="PtKYGCo6nFnBK5PdXEHj-113" value="Release_Date" style="ellipse;whiteSpace=wrap;html=1;" vertex="1" parent="1">
          <mxGeometry x="90" y="670" width="120" height="80" as="geometry" />
        </mxCell>
        <mxCell id="PtKYGCo6nFnBK5PdXEHj-114" value="Title" style="ellipse;whiteSpace=wrap;html=1;" vertex="1" parent="1">
          <mxGeometry x="255" y="660" width="120" height="80" as="geometry" />
        </mxCell>
        <mxCell id="PtKYGCo6nFnBK5PdXEHj-115" value="&lt;u&gt;AlbumID&lt;/u&gt;" style="ellipse;whiteSpace=wrap;html=1;" vertex="1" parent="1">
          <mxGeometry x="20" y="600" width="120" height="80" as="geometry" />
        </mxCell>
        <mxCell id="PtKYGCo6nFnBK5PdXEHj-116" value="" style="endArrow=none;html=1;rounded=0;exitX=0.5;exitY=0;exitDx=0;exitDy=0;entryX=0.558;entryY=1.017;entryDx=0;entryDy=0;entryPerimeter=0;" edge="1" parent="1" source="PtKYGCo6nFnBK5PdXEHj-114" target="PtKYGCo6nFnBK5PdXEHj-110">
          <mxGeometry width="50" height="50" relative="1" as="geometry">
            <mxPoint x="560" y="500" as="sourcePoint" />
            <mxPoint x="610" y="450" as="targetPoint" />
          </mxGeometry>
        </mxCell>
        <mxCell id="PtKYGCo6nFnBK5PdXEHj-117" value="" style="endArrow=none;html=1;rounded=0;exitX=1;exitY=0;exitDx=0;exitDy=0;entryX=0.25;entryY=1;entryDx=0;entryDy=0;" edge="1" parent="1" source="PtKYGCo6nFnBK5PdXEHj-113" target="PtKYGCo6nFnBK5PdXEHj-110">
          <mxGeometry width="50" height="50" relative="1" as="geometry">
            <mxPoint x="560" y="500" as="sourcePoint" />
            <mxPoint x="610" y="450" as="targetPoint" />
          </mxGeometry>
        </mxCell>
        <mxCell id="PtKYGCo6nFnBK5PdXEHj-118" value="" style="endArrow=none;html=1;rounded=0;exitX=1;exitY=0;exitDx=0;exitDy=0;entryX=0;entryY=0.5;entryDx=0;entryDy=0;" edge="1" parent="1" source="PtKYGCo6nFnBK5PdXEHj-115" target="PtKYGCo6nFnBK5PdXEHj-110">
          <mxGeometry width="50" height="50" relative="1" as="geometry">
            <mxPoint x="560" y="500" as="sourcePoint" />
            <mxPoint x="610" y="450" as="targetPoint" />
          </mxGeometry>
        </mxCell>
        <mxCell id="PtKYGCo6nFnBK5PdXEHj-119" value="" style="endArrow=none;html=1;rounded=0;entryX=0.95;entryY=0.3;entryDx=0;entryDy=0;entryPerimeter=0;exitX=0;exitY=0.25;exitDx=0;exitDy=0;" edge="1" parent="1" source="PtKYGCo6nFnBK5PdXEHj-110" target="PtKYGCo6nFnBK5PdXEHj-111">
          <mxGeometry width="50" height="50" relative="1" as="geometry">
            <mxPoint x="560" y="500" as="sourcePoint" />
            <mxPoint x="610" y="450" as="targetPoint" />
          </mxGeometry>
        </mxCell>
        <mxCell id="PtKYGCo6nFnBK5PdXEHj-120" value="" style="endArrow=none;html=1;rounded=0;entryX=0.967;entryY=0.663;entryDx=0;entryDy=0;entryPerimeter=0;exitX=0;exitY=0;exitDx=0;exitDy=0;" edge="1" parent="1" source="PtKYGCo6nFnBK5PdXEHj-110" target="PtKYGCo6nFnBK5PdXEHj-112">
          <mxGeometry width="50" height="50" relative="1" as="geometry">
            <mxPoint x="560" y="500" as="sourcePoint" />
            <mxPoint x="610" y="450" as="targetPoint" />
          </mxGeometry>
        </mxCell>
        <mxCell id="PtKYGCo6nFnBK5PdXEHj-121" value="Produced" style="rhombus;whiteSpace=wrap;html=1;" vertex="1" parent="1">
          <mxGeometry x="330" y="333" width="80" height="80" as="geometry" />
        </mxCell>
        <mxCell id="PtKYGCo6nFnBK5PdXEHj-122" value="" style="endArrow=none;html=1;rounded=0;exitX=0.6;exitY=0;exitDx=0;exitDy=0;exitPerimeter=0;entryX=0;entryY=1;entryDx=0;entryDy=0;" edge="1" parent="1" source="PtKYGCo6nFnBK5PdXEHj-110" target="PtKYGCo6nFnBK5PdXEHj-121">
          <mxGeometry width="50" height="50" relative="1" as="geometry">
            <mxPoint x="560" y="500" as="sourcePoint" />
            <mxPoint x="610" y="450" as="targetPoint" />
          </mxGeometry>
        </mxCell>
        <mxCell id="PtKYGCo6nFnBK5PdXEHj-123" value="" style="endArrow=none;html=1;rounded=0;entryX=0;entryY=0.75;entryDx=0;entryDy=0;exitX=1;exitY=0.5;exitDx=0;exitDy=0;" edge="1" parent="1" source="PtKYGCo6nFnBK5PdXEHj-121" target="PtKYGCo6nFnBK5PdXEHj-41">
          <mxGeometry width="50" height="50" relative="1" as="geometry">
            <mxPoint x="560" y="500" as="sourcePoint" />
            <mxPoint x="610" y="450" as="targetPoint" />
          </mxGeometry>
        </mxCell>
        <mxCell id="PtKYGCo6nFnBK5PdXEHj-124" value="1" style="text;html=1;align=center;verticalAlign=middle;resizable=0;points=[];autosize=1;strokeColor=none;fillColor=none;" vertex="1" parent="1">
          <mxGeometry x="415" y="343" width="20" height="20" as="geometry" />
        </mxCell>
        <mxCell id="PtKYGCo6nFnBK5PdXEHj-125" value="n" style="text;html=1;align=center;verticalAlign=middle;resizable=0;points=[];autosize=1;strokeColor=none;fillColor=none;" vertex="1" parent="1">
          <mxGeometry x="350" y="410" width="20" height="20" as="geometry" />
        </mxCell>
        <mxCell id="PtKYGCo6nFnBK5PdXEHj-126" value="(1,n) musician can make n albums&lt;br&gt;album can only have one author" style="text;html=1;align=center;verticalAlign=middle;resizable=0;points=[];autosize=1;strokeColor=none;fillColor=none;" vertex="1" parent="1">
          <mxGeometry x="140" y="415" width="200" height="30" as="geometry" />
        </mxCell>
        <mxCell id="PtKYGCo6nFnBK5PdXEHj-127" value="featured in/from" style="rhombus;whiteSpace=wrap;html=1;" vertex="1" parent="1">
          <mxGeometry x="430" y="570" width="80" height="80" as="geometry" />
        </mxCell>
        <mxCell id="PtKYGCo6nFnBK5PdXEHj-128" value="" style="endArrow=none;html=1;rounded=0;entryX=0;entryY=0.5;entryDx=0;entryDy=0;exitX=1;exitY=0.5;exitDx=0;exitDy=0;" edge="1" parent="1" source="PtKYGCo6nFnBK5PdXEHj-127" target="PtKYGCo6nFnBK5PdXEHj-76">
          <mxGeometry width="50" height="50" relative="1" as="geometry">
            <mxPoint x="560" y="480" as="sourcePoint" />
            <mxPoint x="610" y="430" as="targetPoint" />
          </mxGeometry>
        </mxCell>
        <mxCell id="PtKYGCo6nFnBK5PdXEHj-129" value="" style="endArrow=none;html=1;rounded=0;entryX=1;entryY=0.75;entryDx=0;entryDy=0;exitX=0;exitY=0;exitDx=0;exitDy=0;" edge="1" parent="1" source="PtKYGCo6nFnBK5PdXEHj-127" target="PtKYGCo6nFnBK5PdXEHj-110">
          <mxGeometry width="50" height="50" relative="1" as="geometry">
            <mxPoint x="560" y="480" as="sourcePoint" />
            <mxPoint x="610" y="430" as="targetPoint" />
          </mxGeometry>
        </mxCell>
        <mxCell id="PtKYGCo6nFnBK5PdXEHj-130" value="1" style="text;html=1;align=center;verticalAlign=middle;resizable=0;points=[];autosize=1;strokeColor=none;fillColor=none;" vertex="1" parent="1">
          <mxGeometry x="360" y="570" width="20" height="20" as="geometry" />
        </mxCell>
        <mxCell id="PtKYGCo6nFnBK5PdXEHj-131" value="n" style="text;html=1;align=center;verticalAlign=middle;resizable=0;points=[];autosize=1;strokeColor=none;fillColor=none;" vertex="1" parent="1">
          <mxGeometry x="500" y="610" width="20" height="20" as="geometry" />
        </mxCell>
        <mxCell id="PtKYGCo6nFnBK5PdXEHj-132" value="(1,n) song is featured from one album&lt;br&gt;album features n songs" style="text;html=1;align=center;verticalAlign=middle;resizable=0;points=[];autosize=1;strokeColor=none;fillColor=none;" vertex="1" parent="1">
          <mxGeometry x="360" y="660" width="220" height="30" as="geometry" />
        </mxCell>
      </root>
    </mxGraphModel>
  </diagram>
</mxfile>
